<?xml version="1.0" encoding="UTF-8" standalone="no"?>
<!-- Created with Inkscape (http://www.inkscape.org/) -->
<svg id="svg3390" xmlns:rdf="http://www.w3.org/1999/02/22-rdf-syntax-ns#" xmlns="http://www.w3.org/2000/svg" height="40" viewBox="0 0 41 40" width="41" version="1.1" xmlns:cc="http://creativecommons.org/ns#" xmlns:dc="http://purl.org/dc/elements/1.1/">
 <metadata id="metadata3396">
  <rdf:RDF>
   <cc:Work rdf:about="">
    <dc:format>image/svg+xml</dc:format>
    <dc:type rdf:resource="http://purl.org/dc/dcmitype/StillImage"/>
    <dc:title/>
   </cc:Work>
  </rdf:RDF>
 </metadata>
 <path id="path3402" d="m8.0786 38.821c0.7626-2.287 3.5074-3.287 5.1904-1.891 2.509 2.083 1.866 3.07-2 3.07-2.3063 0-3.4432-0.42-3.1904-1.179zm13.774 0.301c0-3.1888 6.1887-3.6791 7.3762-0.58438 0.434 1.131-0.337 1.462-3.408 1.462-2.183 0-3.969-0.395-3.969-0.878zm-14.764-7.116c-1.2169-1.134-2.4443-3.061-2.7276-4.284-1.1108-4.792-3.7854-17.367-4.2479-19.972-0.27542-1.5514-0.034512-2.75 0.55272-2.75 2.4212 0 5.0267 5.4568 6.6869 14.004 2.06 10.606 2.731 11.226 11.676 10.793l6.132-0.297 3.3177-6c2.1076-3.8115 3.961-6 5.0815-6 2.9758 0 2.5229 2.7541-1.5656 9.5205l-3.915 6.48-9.39 0.284c-8.3277 0.25144-9.6397 0.05042-11.602-1.7777zm7.1853-13.224-3.8107-4.218 2.4444-0.57145c1.9697-0.46047 2.5047-1.292 2.7548-4.282 0.26615-3.1819 0.65791-3.7105 2.75-3.7105 1.9136 0 2.4396 0.52141 2.4396 2.4182 0 3.7285 1.0316 5.5818 3.107 5.5818 1.0412 0 1.893 0.25139 1.893 0.55864 0 0.92434-6.2789 8.4414-7.051 8.4414-0.39395 0-2.4311-1.8981-4.527-4.218z" fill="#dce1e4"/>
</svg>
