<svg xmlns="http://www.w3.org/2000/svg" xmlns:xlink="http://www.w3.org/1999/xlink" preserveAspectRatio="xMidYMid" width="44" height="44" viewBox="0 0 44 44">
  <defs>
    <style>
      .cls-1 {
        fill: #bfc5c9;
        fill-rule: evenodd;
      }
    </style>
  </defs>
  <path d="M22.002,44.003 C9.868,44.003 -0.003,34.132 -0.003,21.998 C-0.003,9.865 9.868,-0.007 22.002,-0.007 C34.135,-0.007 44.007,9.865 44.007,21.998 C44.007,34.132 34.135,44.003 22.002,44.003 ZM22.002,1.485 C10.691,1.485 1.489,10.687 1.489,21.998 C1.489,33.308 10.691,42.511 22.002,42.511 C33.312,42.511 42.515,33.308 42.515,21.998 C42.515,10.687 33.312,1.485 22.002,1.485 ZM28.453,25.289 L21.685,18.527 L14.917,25.289 C14.626,25.579 14.152,25.579 13.861,25.289 C13.570,24.997 13.570,24.524 13.861,24.233 L21.157,16.946 C21.448,16.653 21.921,16.653 22.213,16.946 L29.508,24.233 C29.655,24.379 29.728,24.570 29.728,24.761 C29.728,24.952 29.655,25.143 29.509,25.289 C29.219,25.580 28.745,25.580 28.453,25.289 Z" class="cls-1"/>
</svg>
