<svg xmlns="http://www.w3.org/2000/svg" xmlns:xlink="http://www.w3.org/1999/xlink" preserveAspectRatio="xMidYMid" width="44" height="44" viewBox="0 0 44 44">
  <defs>
    <style>
      .cls-1 {
        fill: #bfc5c9;
        fill-rule: evenodd;
      }
    </style>
  </defs>
  <path d="M22.002,44.007 C9.868,44.007 -0.003,34.136 -0.003,22.003 C-0.003,9.869 9.868,-0.003 22.002,-0.003 C34.136,-0.003 44.007,9.868 44.007,22.003 C44.007,34.137 34.135,44.007 22.002,44.007 ZM22.002,1.489 C10.692,1.489 1.489,10.692 1.489,22.003 C1.489,33.313 10.692,42.516 22.002,42.516 C33.312,42.516 42.515,33.313 42.515,22.003 C42.515,10.692 33.312,1.489 22.002,1.489 ZM23.056,22.002 L29.080,28.026 C29.372,28.317 29.372,28.789 29.080,29.081 C28.935,29.227 28.744,29.300 28.553,29.300 C28.362,29.300 28.171,29.227 28.026,29.081 L22.001,23.056 L15.977,29.081 C15.832,29.227 15.641,29.300 15.450,29.300 C15.259,29.300 15.068,29.227 14.923,29.081 C14.631,28.789 14.631,28.317 14.923,28.026 L20.947,22.002 L14.922,15.977 C14.630,15.686 14.630,15.214 14.922,14.922 C15.213,14.631 15.685,14.631 15.977,14.922 L22.001,20.947 L28.026,14.922 C28.318,14.631 28.790,14.631 29.081,14.922 C29.373,15.214 29.373,15.686 29.081,15.977 L23.056,22.002 Z" class="cls-1"/>
</svg>
