<svg xmlns="http://www.w3.org/2000/svg" xmlns:xlink="http://www.w3.org/1999/xlink" preserveAspectRatio="xMidYMid" width="44" height="44" viewBox="0 0 44 44">
  <defs>
    <style>
      .cls-1 {
        fill: #bfc5c9;
        fill-rule: evenodd;
      }
    </style>
  </defs>
  <path d="M22.002,44.003 C9.868,44.003 -0.003,34.132 -0.003,21.997 C-0.003,9.864 9.868,-0.007 22.002,-0.007 C34.136,-0.007 44.007,9.865 44.007,21.997 C44.007,34.132 34.136,44.003 22.002,44.003 ZM22.002,1.485 C10.691,1.485 1.489,10.688 1.489,21.997 C1.489,33.308 10.691,42.511 22.002,42.511 C33.313,42.511 42.515,33.308 42.515,21.997 C42.515,10.688 33.313,1.485 22.002,1.485 ZM22.212,27.281 C21.920,27.571 21.448,27.571 21.157,27.281 L13.861,19.991 C13.570,19.700 13.570,19.227 13.861,18.936 C14.153,18.644 14.625,18.644 14.916,18.936 L21.684,25.698 L28.454,18.934 C28.745,18.644 29.219,18.644 29.509,18.934 C29.655,19.081 29.727,19.272 29.727,19.463 C29.727,19.654 29.655,19.844 29.508,19.991 L22.212,27.281 Z" class="cls-1"/>
</svg>
