<?xml version="1.0" encoding="UTF-8" standalone="no"?>
<!-- Created with Inkscape (http://www.inkscape.org/) -->
<svg id="svg3390" xmlns:rdf="http://www.w3.org/1999/02/22-rdf-syntax-ns#" xmlns="http://www.w3.org/2000/svg" height="25" viewBox="0 0 105 25" width="105" version="1.1" xmlns:cc="http://creativecommons.org/ns#" xmlns:dc="http://purl.org/dc/elements/1.1/">
 <metadata id="metadata3396">
  <rdf:RDF>
   <cc:Work rdf:about="">
    <dc:format>image/svg+xml</dc:format>
    <dc:type rdf:resource="http://purl.org/dc/dcmitype/StillImage"/>
    <dc:title/>
   </cc:Work>
  </rdf:RDF>
 </metadata>
 <path id="path3404" d="m0.063462 12.636v-12.5h52.5 52.5v12.5 12.5h-52.5-52.5v-12.5z" fill="#fafafb"/>
 <path id="path3402" d="m5.1767 21.447c-0.5482-2.096-1.877-7.299-2.9529-11.562l-1.9561-7.75h2.2909c2.6493 0 2.7776 0.26118 4.5448 9.25 0.72985 3.7125 1.5819 6.7491 1.8935 6.7479s1.4209-3.6246 2.465-8.0521c1.7998-7.6313 2.0311-8.0343 4.4484-7.7479 2.3064 0.27325 2.7569 1.1137 4.7181 8.8021l2.1682 8.5 1.9109-8.5c1.6452-7.3182 2.2199-8.5444 4.1334-8.8196 2.8632-0.41166 2.8076 0.77901-0.59826 12.82-2.4601 8.6969-2.9091 9.5258-5.3121 9.8047-2.4892 0.28898-2.7157-0.07286-4.3831-7-0.96702-4.0176-2.0037-7.7322-2.3037-8.2546-0.30001-0.52243-1.4758 2.6276-2.6129 7-1.8929 7.2785-2.2951 7.9762-4.7625 8.261-2.3722 0.27385-2.8144-0.14541-3.6918-3.5zm28.458 2.1175c-0.86429-0.86428-1.5714-2.6321-1.5714-3.9286 0-3.5036 2.5935-5.5 7.1448-5.5 3.2766 0 3.9391-0.31714 3.6554-1.75-0.26039-1.3152-1.3345-1.75-4.3233-1.75-2.8683 0-3.9769-0.41812-3.9769-1.5 0-1.1008 1.3728-1.5796 5.1589-1.7991 6.7231-0.38979 8.3411 1.6397 8.3411 10.463 0 6.4174-1.0634 8.3587-3.4799 6.3532-1.0067-0.83548-1.9457-0.85932-3.3905-0.08609-2.8353 1.5174-5.7311 1.3251-7.5582-0.50204zm9.2664-5.3182c0.29275-2.0707 0.02581-2.3061-2-1.7637-1.2858 0.34427-2.6753 0.63209-3.0878 0.6396-0.4125 0.0075-0.75 0.94354-0.75 2.0801 0 3.1877 5.3765 2.3072 5.8378-0.95602zm10.788 5.3722c-1.1298-1.1298-1.6254-3.4078-1.6254-7.4707 0-3.7319-0.45193-6.0334-1.25-6.3658-0.93818-0.39067-0.86035-0.84801 0.31197-1.8333 0.85908-0.72205 1.8575-2.1003 2.2186-3.0628 0.90488-2.4116 3.7194-2.2224 3.7194 0.25 0 1.4667 0.66667 2 2.5 2 1.5556 0 2.5 0.56667 2.5 1.5s-0.94444 1.5-2.5 1.5c-2.3636 0-2.5 0.3-2.5 5.5 0 5.2418 0.12081 5.5 2.5733 5.5 1.9104 0 2.4879 0.45082 2.2418 1.75-0.45194 2.3857-6.037 2.8853-8.1897 0.73258zm13.75 0.53258c-4.6104-1.8619-5.3227-12.538-1.0368-15.54 1.1586-0.81155 4.0645-1.4755 6.4574-1.4755 3.6056 0 4.293 0.29973 4.0131 1.75-0.23837 1.2351-1.3066 1.7598-3.6304 1.7833-3.4867 0.03527-5.138 1.6426-5.1632 5.0256-0.02787 3.7474 2.3347 5.8211 5.8346 5.1211 2.6341-0.52681 3.1501-0.32401 3.1501 1.238 0 2.9375-4.9 4.0052-9.6248 2.0971zm12.625-11.446v-12.57h2.5c2.2398 0 2.5 0.40634 2.5 3.9048v3.9048l3.9904-0.53523c6.0416-0.81036 7.0096 0.54951 7.0096 9.848 0 7.2109-0.16926 7.8776-2 7.8776-1.7751 0-2-0.66667-2-5.9286 0-6.8322-1.8294-9.7683-5.022-8.0597-1.4771 0.79053-1.9472 2.3531-2.1806 7.248-0.26711 5.6035-0.52706 6.2728-2.5475 6.5598-2.2309 0.31684-2.25 0.2131-2.25-12.25zm20.216 11.19c-1.4732-1.7751 0.0475-4.048 2.4046-3.594 2.2997 0.44289 2.5333 4.1815 0.28821 4.6139-0.87558 0.16862-2.0873-0.29031-2.6928-1.0198z" fill="#dce1e4"/>
</svg>
